<svg width="182" height="47" viewBox="0 0 182 47" fill="none" xmlns="http://www.w3.org/2000/svg">
<path d="M33.336 32.88C33.336 37.104 32.184 40.3467 29.88 42.608C27.6187 44.8693 24.44 46 20.344 46H14.2C9.16533 46 5.58133 45.1253 3.448 43.376C1.35733 41.6267 0.312 38.5973 0.312 34.288V0.431999H19.576C23.928 0.431999 27.192 1.52 29.368 3.696C31.5867 5.872 32.696 8.944 32.696 12.912C32.696 15.216 32.0987 17.1787 30.904 18.8C29.752 20.4213 28.472 21.5733 27.064 22.256C31.2453 24.2187 33.336 27.76 33.336 32.88ZM18.872 18.224C22.1573 18.224 23.8 16.5813 23.8 13.296C23.8 10.0107 22.1573 8.368 18.872 8.368H9.208V18.224H18.872ZM24.44 32.432C24.44 30.384 24.0773 28.848 23.352 27.824C22.6267 26.7573 21.3253 26.224 19.448 26.224H9.208V33.392C9.208 35.1413 9.63467 36.3573 10.488 37.04C11.384 37.7227 12.8347 38.064 14.84 38.064H19.448C22.776 38.064 24.44 36.1867 24.44 32.432ZM70.533 46H56.965C51.845 46 48.133 45.0187 45.829 43.056C43.5677 41.0507 42.437 37.808 42.437 33.328V0.431999H51.333V33.328C51.333 35.12 51.7383 36.3573 52.549 37.04C53.3597 37.7227 54.8317 38.064 56.965 38.064H70.533V46ZM86.5205 46H77.6245V0.431999H86.5205V46ZM127.845 32.56C127.845 36.8693 126.266 40.2613 123.109 42.736C119.951 45.168 115.919 46.384 111.013 46.384C107.13 46.384 103.375 45.3173 99.7485 43.184C97.9565 42.0747 96.4845 40.5173 95.3325 38.512C94.1805 36.464 93.6045 34.1387 93.6045 31.536L101.669 31.152C101.669 33.456 102.65 35.248 104.613 36.528C106.575 37.808 108.751 38.448 111.141 38.448C116.474 38.448 119.141 36.5707 119.141 32.816C119.141 29.744 117.327 27.9307 113.701 27.376L106.277 26.608C102.565 26.0533 99.6205 24.7307 97.4445 22.64C95.2685 20.5493 94.1805 17.5413 94.1805 13.616C94.1805 9.69066 95.7378 6.448 98.8525 3.888C101.967 1.328 105.893 0.0479965 110.628 0.0479965C115.407 0.0479965 119.247 1.264 122.149 3.696C125.05 6.08533 126.501 9.17867 126.501 12.976L118.565 13.36C117.839 9.648 115.343 7.792 111.077 7.792C108.474 7.792 106.426 8.34667 104.933 9.456C103.482 10.5653 102.757 11.888 102.757 13.424C102.757 14.9173 103.29 16.112 104.357 17.008C105.423 17.8613 106.746 18.3947 108.325 18.608L115.621 19.376C123.77 20.4853 127.845 24.88 127.845 32.56ZM165.657 32.56C165.657 36.8693 164.078 40.2613 160.921 42.736C157.764 45.168 153.732 46.384 148.825 46.384C144.942 46.384 141.188 45.3173 137.561 43.184C135.769 42.0747 134.297 40.5173 133.145 38.512C131.993 36.464 131.417 34.1387 131.417 31.536L139.481 31.152C139.481 33.456 140.462 35.248 142.425 36.528C144.388 37.808 146.564 38.448 148.953 38.448C154.286 38.448 156.953 36.5707 156.953 32.816C156.953 29.744 155.14 27.9307 151.513 27.376L144.089 26.608C140.377 26.0533 137.433 24.7307 135.257 22.64C133.081 20.5493 131.993 17.5413 131.993 13.616C131.993 9.69066 133.55 6.448 136.665 3.888C139.78 1.328 143.705 0.0479965 148.441 0.0479965C153.22 0.0479965 157.06 1.264 159.961 3.696C162.862 6.08533 164.313 9.17867 164.313 12.976L156.377 13.36C155.652 9.648 153.156 7.792 148.889 7.792C146.286 7.792 144.238 8.34667 142.745 9.456C141.294 10.5653 140.569 11.888 140.569 13.424C140.569 14.9173 141.102 16.112 142.169 17.008C143.236 17.8613 144.558 18.3947 146.137 18.608L153.433 19.376C161.582 20.4853 165.657 24.88 165.657 32.56ZM180.878 37.424C181.56 38.064 181.902 39.4507 181.902 41.584C181.902 43.7173 181.56 45.1253 180.878 45.808C180.238 46.4907 178.851 46.832 176.718 46.832C174.584 46.832 173.176 46.4907 172.494 45.808C171.811 45.1253 171.47 43.7173 171.47 41.584C171.47 39.4507 171.811 38.064 172.494 37.424C173.176 36.7413 174.584 36.4 176.718 36.4C178.851 36.4 180.238 36.7413 180.878 37.424Z" fill="white"/>
</svg>
