<svg width="27" height="27" viewBox="0 0 27 27" fill="none" xmlns="http://www.w3.org/2000/svg">
<path d="M17.2883 13.2242C16.8503 12.943 16.375 12.7248 15.8763 12.5761C15.5703 12.4832 15.2315 12.3925 14.8818 12.3062C14.5758 12.2209 14.213 12.1335 13.7649 12.0352C13.2302 11.9231 12.7054 11.7681 12.1955 11.5718C11.9328 11.4697 11.7009 11.3014 11.5223 11.0833C11.3917 10.9048 11.3296 10.6852 11.3475 10.4647C11.3471 10.2283 11.426 9.99859 11.5715 9.81229C11.7753 9.57368 12.0395 9.39436 12.3365 9.29318C12.8361 9.12153 13.3626 9.04156 13.8906 9.05713C14.2991 9.05035 14.7065 9.10412 15.0993 9.21668C15.3598 9.28998 15.6051 9.40915 15.8238 9.56858C15.9652 9.66951 16.0858 9.79679 16.179 9.94343C16.2465 10.0708 16.3385 10.1835 16.4497 10.2752C16.5609 10.3668 16.6892 10.4356 16.8271 10.4775C16.965 10.5194 17.1098 10.5336 17.2532 10.5192C17.3967 10.5049 17.5358 10.4624 17.6627 10.3941C17.7896 10.3257 17.9018 10.233 17.9927 10.1212C18.0836 10.0093 18.1515 9.88064 18.1925 9.74246C18.2334 9.60428 18.2467 9.45936 18.2314 9.31605C18.2161 9.17273 18.1727 9.03385 18.1035 8.9074C17.8731 8.49979 17.5618 8.14352 17.1888 7.86045C16.7579 7.52939 16.269 7.28146 15.7473 7.12933C15.1451 6.9514 14.5196 6.86447 13.8917 6.87141C13.0934 6.85423 12.2988 6.98389 11.5475 7.25391C10.868 7.50128 10.2711 7.93353 9.82404 8.50196C9.39589 9.06716 9.1641 9.75676 9.16396 10.4658C9.14623 11.1717 9.36983 11.8626 9.79782 12.4242C10.211 12.9446 10.7526 13.3484 11.3693 13.5958C11.8353 13.7751 12.3125 13.924 12.7977 14.0416C12.8065 14.0449 12.813 14.0526 12.8218 14.0548C13.0316 14.1181 13.366 14.2023 13.849 14.3061C14.0381 14.3476 14.2151 14.3925 14.3922 14.4373C14.4097 14.4416 14.4348 14.4471 14.4512 14.4526L14.4709 14.4547C14.7419 14.5247 15.0031 14.5957 15.2424 14.6689C15.5365 14.755 15.8171 14.8815 16.0763 15.0449C16.2379 15.1464 16.3737 15.2841 16.473 15.4471C16.5691 15.6459 16.6134 15.8658 16.6019 16.0864C16.6171 16.3719 16.5346 16.654 16.3681 16.8864C16.1432 17.179 15.839 17.4009 15.4916 17.5257C14.9739 17.7255 14.4212 17.8192 13.8665 17.8011C13.2251 17.8257 12.587 17.6968 12.0054 17.4251C11.7368 17.2821 11.506 17.0772 11.3322 16.8273C11.2102 16.6675 11.1339 16.4775 11.1114 16.2776C11.1114 15.9878 10.9963 15.7098 10.7913 15.5049C10.5864 15.2999 10.3084 15.1848 10.0186 15.1848C9.72873 15.1848 9.45076 15.2999 9.24581 15.5049C9.04086 15.7098 8.92572 15.9878 8.92572 16.2776C8.94373 16.9225 9.15546 17.547 9.53334 18.0699C9.911 18.6138 10.414 19.0587 11 19.3671C11.8914 19.8021 12.875 20.0147 13.8665 19.9868C14.7091 20.0072 15.5471 19.8566 16.3298 19.5442C17.0575 19.265 17.6892 18.782 18.1494 18.153C18.5869 17.5402 18.8111 16.8007 18.7877 16.0481C18.7978 15.4647 18.6566 14.8887 18.3778 14.3761C18.1086 13.9133 17.7356 13.5194 17.2883 13.2253V13.2242ZM25.1798 15.2766C25.4744 13.4806 25.3373 11.6402 24.7796 9.90769C24.222 8.17519 23.2599 6.60034 21.9729 5.31339C20.686 4.02643 19.1111 3.06435 17.3786 2.50671C15.6461 1.94908 13.8058 1.81191 12.0098 2.10656C10.6837 1.47075 9.19298 1.26225 7.74336 1.50982C6.29375 1.7574 4.95673 2.44885 3.91685 3.48872C2.87698 4.52859 2.18553 5.86562 1.93796 7.31523C1.69038 8.76485 1.89888 10.2556 2.53469 11.5816C2.24029 13.3775 2.3776 15.2176 2.93526 16.9498C3.49293 18.6821 4.45493 20.2567 5.74173 21.5435C7.02853 22.8303 8.60315 23.7923 10.3354 24.35C12.0677 24.9076 13.9078 25.045 15.7036 24.7506C17.0297 25.3864 18.5204 25.5949 19.97 25.3473C21.4196 25.0997 22.7566 24.4083 23.7965 23.3684C24.8364 22.3285 25.5278 20.9915 25.7754 19.5419C26.023 18.0923 25.8145 16.6015 25.1787 15.2755L25.1798 15.2766ZM18.7745 23.2643C17.9453 23.2639 17.1296 23.0542 16.403 22.6545C16.1776 22.5303 15.9158 22.4893 15.6632 22.5386C14.3163 22.8072 12.9266 22.7736 11.5943 22.4401C10.262 22.1066 9.02035 21.4815 7.95889 20.61C6.89742 19.7385 6.04261 18.6423 5.45613 17.4004C4.86964 16.1585 4.5661 14.802 4.5674 13.4286C4.56853 12.8216 4.62855 12.2163 4.74663 11.621C4.79607 11.3684 4.75506 11.1065 4.63079 10.8811C4.11764 9.9478 3.92136 8.87313 4.07144 7.81869C4.22153 6.76425 4.70988 5.78703 5.46306 5.03397C6.21624 4.28092 7.19354 3.79273 8.24801 3.64281C9.30247 3.4929 10.3771 3.68936 11.3103 4.20266C11.5359 4.32746 11.7984 4.36849 12.0513 4.3185C13.3981 4.05005 14.7877 4.08384 16.1198 4.41743C17.452 4.75103 18.6935 5.37611 19.7548 6.24759C20.8162 7.11908 21.6709 8.21524 22.2573 9.45703C22.8437 10.6988 23.1472 12.0553 23.146 13.4286C23.1448 14.0355 23.0848 14.6408 22.9667 15.2361C22.9173 15.4887 22.9583 15.7506 23.0826 15.976C23.4948 16.7247 23.7048 17.568 23.6917 18.4226C23.6787 19.2772 23.4431 20.1136 23.0082 20.8494C22.5733 21.5852 21.9541 22.1949 21.2117 22.6183C20.4692 23.0418 19.6292 23.2644 18.7745 23.2643Z" fill="white"/>
</svg>
